<svg width="72" height="72" viewBox="0 0 72 72" fill="none" xmlns="http://www.w3.org/2000/svg">
<g clip-path="url(#clip0_33_123)">
<circle cx="36" cy="38" r="36" fill="#0F0F0F"/>
<path fill-rule="evenodd" clip-rule="evenodd" d="M36 2C16.11 2 0 18.11 0 38C0 53.93 10.305 67.385 24.615 72.155C26.415 72.47 27.09 71.39 27.09 70.445C27.09 69.59 27.045 66.755 27.045 63.74C18 65.405 15.66 61.535 14.94 59.51C14.535 58.475 12.78 55.28 11.25 54.425C9.99 53.75 8.19 52.085 11.205 52.04C14.04 51.995 16.065 54.65 16.74 55.73C19.98 61.175 25.155 59.645 27.225 58.7C27.54 56.36 28.485 54.785 29.52 53.885C21.51 52.985 13.14 49.88 13.14 36.11C13.14 32.195 14.535 28.955 16.83 26.435C16.47 25.535 15.21 21.845 17.19 16.895C17.19 16.895 20.205 15.95 27.09 20.585C29.97 19.775 33.03 19.37 36.09 19.37C39.15 19.37 42.21 19.775 45.09 20.585C51.975 15.905 54.99 16.895 54.99 16.895C56.97 21.845 55.71 25.535 55.35 26.435C57.645 28.955 59.04 32.15 59.04 36.11C59.04 49.925 50.625 52.985 42.615 53.885C43.92 55.01 45.045 57.17 45.045 60.545C45.045 65.36 45 69.23 45 70.445C45 71.39 45.675 72.515 47.475 72.155C61.695 67.385 72 53.885 72 38C72 18.11 55.89 2 36 2Z" fill="#F2F2F2"/>
</g>
<defs>
<clipPath id="clip0_33_123">
<rect width="72" height="72" fill="white"/>
</clipPath>
</defs>
</svg>
