<svg width="64" height="64" viewBox="0 0 64 64" fill="none" xmlns="http://www.w3.org/2000/svg">
<rect width="64" height="64" rx="4" fill="#F2F2F2"/>
<path d="M31.76 36.272H18.992V50H11.696V16.496H18.992V29.84H31.76V16.496H39.056V50H31.76V36.272ZM48.2544 50.528C46.8144 50.528 45.7424 50.176 45.0384 49.472C44.3664 48.736 44.0304 47.808 44.0304 46.688V45.728C44.0304 44.608 44.3664 43.696 45.0384 42.992C45.7424 42.256 46.8144 41.888 48.2544 41.888C49.6944 41.888 50.7504 42.256 51.4224 42.992C52.1264 43.696 52.4784 44.608 52.4784 45.728V46.688C52.4784 47.808 52.1264 48.736 51.4224 49.472C50.7504 50.176 49.6944 50.528 48.2544 50.528Z" fill="black"/>
</svg>
