<svg width="72" height="72" viewBox="0 0 72 72" fill="none" xmlns="http://www.w3.org/2000/svg">
<rect x="7" y="14" width="58" height="43" fill="#F2F2F2"/>
<path d="M63.5625 12.375H8.4375C6.26484 12.375 4.5 14.1398 4.5 16.3125V55.6875C4.5 57.8602 6.26484 59.625 8.4375 59.625H63.5625C65.7352 59.625 67.5 57.8602 67.5 55.6875V16.3125C67.5 14.1398 65.7352 12.375 63.5625 12.375ZM63.5625 16.3125V22.05L36.7664 33.525C36.2813 33.7289 35.7188 33.7359 35.2266 33.518L8.4375 22.05V16.3125H63.5625ZM8.4375 55.6875V26.332L33.6727 37.1461C34.418 37.4625 35.2125 37.6242 36 37.6242C36.7945 37.6242 37.5891 37.4625 38.3273 37.1461L63.5625 26.332V55.6875H8.4375Z" fill="black"/>
</svg>
